<?xml version="1.0" encoding="UTF-8"?>
<svg width="24" height="24" version="1.1" viewBox="0 0 24 24" xmlns="http://www.w3.org/2000/svg" xmlns:cc="http://creativecommons.org/ns#" xmlns:dc="http://purl.org/dc/elements/1.1/" xmlns:rdf="http://www.w3.org/1999/02/22-rdf-syntax-ns#">
 <metadata>
  <rdf:RDF>
   <cc:Work rdf:about="">
    <dc:format>image/svg+xml</dc:format>
    <dc:type rdf:resource="http://purl.org/dc/dcmitype/StillImage"/>
    <dc:title/>
   </cc:Work>
  </rdf:RDF>
 </metadata>
 <path d="m21 21v-18c0-0.6-0.4-1-1-1h-6c-0.6 0-1 0.4-1 1v18c0 0.6 0.4 1 1 1h6c0.6 0 1-0.4 1-1m-10 0v-18c0-0.6-0.4-1-1-1h-6c-0.6 0-1 0.4-1 1v18c0 0.6 0.4 1 1 1h6c0.6 0 1-0.4 1-1z"/>
</svg>
