<svg width="1125" height="260" viewBox="0 0 1125 260" fill="none" xmlns="http://www.w3.org/2000/svg">
<path d="M1108.6 260H16.9C8.10002 260 0.900024 252.8 0.900024 244V16C0.900024 7.2 8.10002 0 16.9 0H1108.6C1117.4 0 1124.6 7.2 1124.6 16V244C1124.6 252.8 1117.4 260 1108.6 260Z" fill="black" fill-opacity="0.33"/>
<path d="M244.062 260H16.9385C8.17231 260 1 252.8 1 244V16C1 7.2 8.17231 0 16.9385 0H244.062C252.828 0 260 7.2 260 16V244C260 252.8 252.828 260 244.062 260Z" fill="black" fill-opacity="0.17"/>
<path d="M138 244H96C87.2 244 80 236.8 80 228V96C80 87.2 87.2 80 96 80H138C146.8 80 154 87.2 154 96V228C154 236.8 146.8 244 138 244Z" fill="white" fill-opacity="0.5"/>
<path d="M193.5 148.4L175.6 130.5C168.1 123 168.1 110.9 175.6 103.4L193.5 85.5C201 78 213.1 78 220.6 85.5L238.5 103.4C246 110.9 246 123 238.5 130.5L220.6 148.4C213.1 155.9 200.9 155.9 193.5 148.4Z" fill="white" fill-opacity="0.5"/>
<path d="M207 244C186.6 244 170 227.4 170 207C170 186.6 186.6 170 207 170C227.4 170 244 186.6 244 207C244 227.4 227.4 244 207 244Z" fill="white" fill-opacity="0.93"/>
<path d="M16 228V32C16 23.2 23.2 16 32 16H48C56.8 16 64 23.2 64 32V228C64 236.8 56.8 244 48 244H32C23.2 244 16 236.8 16 228Z" fill="white" fill-opacity="0.93"/>
<path d="M64 64H228.46C237.283 64 244 57 244 48.2V32.2C244 23.4 237.283 16 228.46 16H48C56.8 16 64 23.2 64 32V64Z" fill="white" fill-opacity="0.5"/>
<path opacity="0.87" d="M365.4 153.1H365.8L388.1 89.1H410.8V176H393.4V116.7L393 116.6L371.5 176H359.7L338.2 116.5L337.8 116.6V176H320.4V89H343.3L365.4 153.1Z" fill="white" fill-opacity="0.93"/>
<path opacity="0.87" d="M463.6 175.9C463 174.4 462.4 172.9 462 171.2C461.5 169.6 461.2 167.9 461 166.2C459.2 169.3 456.8 171.9 453.9 174C451 176.1 447.5 177.1 443.4 177.1C436.6 177.1 431.4 175.4 427.8 171.9C424.1 168.4 422.3 163.7 422.3 157.7C422.3 151.4 424.7 146.5 429.6 143C434.5 139.5 441.6 137.8 450.9 137.8H460.7V132.7C460.7 129.6 459.9 127.2 458.3 125.5C456.7 123.8 454.2 122.9 451 122.9C448.2 122.9 446 123.6 444.5 125C443 126.4 442.2 128.3 442.2 130.6H425.4L425.3 130.2C425 124.8 427.4 120 432.4 116.1C437.4 112.1 444 110.2 452.1 110.2C459.9 110.2 466.1 112.1 470.9 116C475.7 119.9 478.1 125.5 478.1 132.8V159.5C478.1 162.5 478.3 165.4 478.8 168C479.3 170.7 480 173.3 481 175.9H463.6ZM447.6 164.3C450.6 164.3 453.3 163.5 455.7 162C458.1 160.5 459.7 158.7 460.6 156.7V147.6H450.8C447.1 147.6 444.3 148.5 442.4 150.3C440.5 152.1 439.6 154.4 439.6 157C439.6 159.2 440.3 160.9 441.7 162.2C443.2 163.6 445.1 164.3 447.6 164.3Z" fill="white" fill-opacity="0.93"/>
<path opacity="0.87" d="M512 95.5V111.3H522.9V123.5H512V156.4C512 158.9 512.5 160.7 513.6 161.8C514.7 162.9 516 163.4 517.7 163.4C518.6 163.4 519.4 163.4 520.1 163.3C520.8 163.2 521.6 163 522.4 162.8L523.8 175.4C522 176 520.3 176.4 518.7 176.7C517.1 177 515.2 177.1 513.3 177.1C507.3 177.1 502.7 175.5 499.4 172.1C496.2 168.8 494.5 163.6 494.5 156.4V123.5H485.1V111.3H494.5V95.5H512Z" fill="white" fill-opacity="0.93"/>
<path opacity="0.87" d="M561.6 177.2C552 177.2 544.5 174.2 539 168.3C533.6 162.4 530.9 154.8 530.9 145.5V143.1C530.9 133.4 533.5 125.5 538.8 119.4C544.1 113.2 551.3 110.2 560.5 110.2C569.2 110.2 575.8 112.9 580.5 118.2C585.1 123.5 587.5 130.7 587.5 139.6V148.6H549L548.8 149C549.1 153.4 550.4 157 552.8 159.7C555.2 162.4 558.8 163.8 563.5 163.8C567.4 163.8 570.7 163.4 573.4 162.6C576.1 161.8 578.9 160.6 581.8 159L586.5 169.7C583.9 171.8 580.4 173.6 576 175C571.7 176.4 566.9 177.2 561.6 177.2ZM560.5 123.6C557 123.6 554.3 124.8 552.4 127.2C550.5 129.6 549.4 132.8 549 136.8L549.1 137.1H570.3V135.8C570.3 132 569.5 129 568 126.9C566.5 124.7 564 123.6 560.5 123.6Z" fill="white" fill-opacity="0.93"/>
<path opacity="0.87" d="M631.5 126.3L625.1 126.1C622.5 126.1 620.4 126.6 618.7 127.7C617 128.8 615.8 130.3 614.9 132.2V175.8H597.5V111.2H613.7L614.5 120.7C616 117.3 618 114.7 620.4 112.8C622.8 110.9 625.6 110 628.7 110C629.6 110 630.4 110.1 631.1 110.2C631.8 110.3 632.6 110.5 633.3 110.7L631.5 126.3Z" fill="white" fill-opacity="0.93"/>
<path opacity="0.87" d="M658.9 95.9H641.5V82.8H658.9V95.9ZM658.9 175.9H641.5V111.3H658.9V175.9Z" fill="white" fill-opacity="0.93"/>
<path opacity="0.87" d="M711.3 175.9C710.7 174.4 710.1 172.9 709.7 171.2C709.2 169.6 708.9 167.9 708.7 166.2C706.9 169.3 704.5 171.9 701.6 174C698.7 176.1 695.2 177.1 691.1 177.1C684.3 177.1 679.1 175.4 675.5 171.9C671.8 168.4 670 163.7 670 157.7C670 151.4 672.4 146.5 677.3 143C682.2 139.5 689.3 137.8 698.6 137.8H708.4V132.7C708.4 129.6 707.6 127.2 706 125.5C704.4 123.8 701.9 122.9 698.7 122.9C695.9 122.9 693.7 123.6 692.2 125C690.7 126.4 689.9 128.3 689.9 130.6H673L672.9 130.2C672.6 124.8 675 120 680 116.1C685 112.1 691.6 110.2 699.7 110.2C707.5 110.2 713.7 112.1 718.5 116C723.3 119.9 725.7 125.5 725.7 132.8V159.5C725.7 162.5 725.9 165.4 726.4 168C726.9 170.7 727.6 173.3 728.6 175.9H711.3ZM695.4 164.3C698.4 164.3 701.1 163.5 703.5 162C705.9 160.5 707.5 158.7 708.4 156.7V147.6H698.6C694.9 147.6 692.1 148.5 690.2 150.3C688.3 152.1 687.4 154.4 687.4 157C687.4 159.2 688.1 160.9 689.5 162.2C690.9 163.6 692.9 164.3 695.4 164.3Z" fill="white" fill-opacity="0.93"/>
<path opacity="0.87" d="M757.2 175.9H739.8V82.8H757.2V175.9Z" fill="white" fill-opacity="0.93"/>
<path opacity="0.87" d="M848.5 153.2C848.5 149.9 847.3 147.2 845 145.1C842.7 143.1 838.6 141.2 832.7 139.4C822.7 136.4 815.1 132.8 809.9 128.7C804.7 124.6 802.1 119 802.1 111.9C802.1 104.8 805 99 810.9 94.4C816.7 89.9 824.2 87.6 833.3 87.6C842.9 87.6 850.7 90 856.5 94.9C862.4 99.8 865.2 106.1 865 114L864.9 114.4H848C848 110.1 846.7 106.7 844.1 104.4C841.5 102.1 837.8 100.9 833.1 100.9C828.8 100.9 825.5 101.9 823.1 104C820.8 106.1 819.6 108.7 819.6 111.9C819.6 114.8 820.9 117.3 823.4 119.1C825.9 121 830.3 123 836.6 125.1C846.1 127.8 853.4 131.3 858.4 135.7C863.4 140.1 865.9 145.8 865.9 152.9C865.9 160.3 863 166.2 857.2 170.5C851.4 174.8 843.7 176.9 834.2 176.9C824.9 176.9 816.8 174.6 810.1 169.9C803.4 165.2 800.1 158.3 800.3 149.1L800.4 148.7H817.3C817.3 153.8 818.8 157.6 821.8 160C824.8 162.4 828.9 163.6 834.1 163.6C838.8 163.6 842.3 162.6 844.8 160.7C847.3 159.1 848.5 156.5 848.5 153.2Z" fill="white" fill-opacity="0.93"/>
<path opacity="0.87" d="M894.5 119.5C896.5 116.6 899 114.3 902 112.6C904.9 111 908.2 110.1 911.8 110.1C918.5 110.1 923.8 112.3 927.6 116.8C931.4 121.3 933.4 128.2 933.4 137.5V175.8H916V137.4C916 132.4 915.2 128.8 913.6 126.7C912 124.6 909.6 123.6 906.4 123.6C903.7 123.6 901.4 124 899.4 124.9C897.4 125.8 895.8 127 894.6 128.6V175.9H877V82.8H894.4V119.5H894.5Z" fill="white" fill-opacity="0.93"/>
<path opacity="0.87" d="M974.4 177.2C964.8 177.2 957.3 174.2 951.8 168.3C946.4 162.4 943.7 154.8 943.7 145.5V143.1C943.7 133.4 946.3 125.5 951.6 119.4C956.9 113.2 964.1 110.2 973.3 110.2C982 110.2 988.6 112.9 993.3 118.2C997.9 123.5 1000.3 130.7 1000.3 139.6V148.6H961.8L961.6 149C961.9 153.4 963.2 157 965.6 159.7C968 162.4 971.6 163.8 976.3 163.8C980.2 163.8 983.5 163.4 986.2 162.6C988.9 161.8 991.7 160.6 994.6 159L999.3 169.7C996.7 171.8 993.2 173.6 988.8 175C984.4 176.4 979.6 177.2 974.4 177.2ZM973.3 123.6C969.8 123.6 967.1 124.8 965.2 127.2C963.3 129.6 962.2 132.8 961.8 136.8L961.9 137.1H983.1V135.8C983.1 132 982.3 129 980.8 126.9C979.2 124.7 976.7 123.6 973.3 123.6Z" fill="white" fill-opacity="0.93"/>
<path opacity="0.87" d="M1028.7 175.9H1011.3V82.8H1028.7V175.9Z" fill="white" fill-opacity="0.93"/>
<path opacity="0.87" d="M1061.3 175.9H1043.9V82.8H1061.3V175.9Z" fill="white" fill-opacity="0.93"/>
</svg>
