<svg width="1340" height="260" viewBox="0 0 1340 260" fill="none" xmlns="http://www.w3.org/2000/svg">
<path d="M1320.92 260H19.0798C8.58592 260 0 252.8 0 244V16C0 7.2 8.58592 0 19.0798 0H1320.92C1331.41 0 1340 7.2 1340 16V244C1340 252.8 1331.41 260 1320.92 260Z" fill="black" fill-opacity="0.33"/>
<path d="M243.062 260H15.9385C7.17231 260 0 252.8 0 244V16C0 7.2 7.17231 0 15.9385 0H243.062C251.828 0 259 7.2 259 16V244C259 252.8 251.828 260 243.062 260Z" fill="black" fill-opacity="0.17"/>
<path d="M137 244H95C86.2 244 79 236.8 79 228V96C79 87.2 86.2 80 95 80H137C145.8 80 153 87.2 153 96V228C153 236.8 145.8 244 137 244Z" fill="white" fill-opacity="0.5"/>
<path d="M192.5 148.4L174.6 130.5C167.1 123 167.1 110.9 174.6 103.4L192.5 85.5C200 78 212.1 78 219.6 85.5L237.5 103.4C245 110.9 245 123 237.5 130.5L219.6 148.4C212.1 155.9 199.9 155.9 192.5 148.4Z" fill="white" fill-opacity="0.5"/>
<path d="M206 244C185.6 244 169 227.4 169 207C169 186.6 185.6 170 206 170C226.4 170 243 186.6 243 207C243 227.4 226.4 244 206 244Z" fill="white" fill-opacity="0.93"/>
<path d="M15 228V32C15 23.2 22.2 16 31 16H47C55.8 16 63 23.2 63 32V228C63 236.8 55.8 244 47 244H31C22.2 244 15 236.8 15 228Z" fill="white" fill-opacity="0.93"/>
<path d="M63 64H227.46C236.283 64 243 57 243 48.2V32.2C243 23.4 236.283 16 227.46 16H47C55.8 16 63 23.2 63 32V64Z" fill="white" fill-opacity="0.5"/>
<path opacity="0.87" d="M371.206 160.492H371.732L401.071 76.2888H430.937V190.621H408.044V112.601L407.518 112.47L379.231 190.621H363.706L335.419 112.338L334.893 112.47V190.621H312V76.1572H342.129L371.206 160.492Z" fill="white" fill-opacity="0.93"/>
<path opacity="0.87" d="M500.405 190.49C499.616 188.516 498.826 186.543 498.3 184.306C497.642 182.201 497.248 179.964 496.984 177.728C494.616 181.806 491.459 185.227 487.643 187.99C483.828 190.753 479.223 192.068 473.828 192.068C464.882 192.068 458.04 189.832 453.304 185.227C448.436 180.622 446.068 174.438 446.068 166.544C446.068 158.255 449.225 151.809 455.672 147.204C462.119 142.599 471.46 140.362 483.696 140.362H496.59V133.652C496.59 129.574 495.537 126.416 493.432 124.179C491.327 121.943 488.038 120.759 483.828 120.759C480.144 120.759 477.249 121.68 475.276 123.522C473.302 125.364 472.25 127.863 472.25 130.889H450.146L450.015 130.363C449.62 123.258 452.778 116.943 459.356 111.812C465.934 106.549 474.618 104.05 485.275 104.05C495.537 104.05 503.694 106.549 510.01 111.68C516.325 116.812 519.482 124.179 519.482 133.784V168.912C519.482 172.86 519.746 176.675 520.403 180.096C521.061 183.648 521.982 187.069 523.298 190.49H500.405V190.49ZM479.354 175.228C483.301 175.228 486.854 174.175 490.011 172.202C493.169 170.228 495.274 167.86 496.458 165.229V153.256H483.564C478.696 153.256 475.013 154.44 472.513 156.808C470.013 159.176 468.829 162.203 468.829 165.623C468.829 168.518 469.75 170.754 471.592 172.465C473.565 174.307 476.065 175.228 479.354 175.228Z" fill="white" fill-opacity="0.93"/>
<path opacity="0.87" d="M564.084 84.7091V105.497H578.425V121.548H564.084V164.834C564.084 168.123 564.742 170.491 566.189 171.939C567.636 173.386 569.347 174.044 571.583 174.044C572.767 174.044 573.82 174.044 574.741 173.912C575.662 173.781 576.715 173.517 577.767 173.254L579.609 189.832C577.241 190.621 575.004 191.147 572.899 191.542C570.794 191.937 568.294 192.068 565.794 192.068C557.9 192.068 551.848 189.963 547.506 185.49C543.296 181.148 541.06 174.307 541.06 164.834V121.548H528.692V105.497H541.06V84.7091H564.084Z" fill="white" fill-opacity="0.93"/>
<path opacity="0.87" d="M629.341 192.2C616.711 192.2 606.843 188.253 599.607 180.49C592.502 172.728 588.95 162.729 588.95 150.493V147.335C588.95 134.573 592.371 124.179 599.344 116.154C606.317 107.997 615.79 104.05 627.894 104.05C639.341 104.05 648.024 107.602 654.208 114.575C660.26 121.548 663.418 131.021 663.418 142.731V154.572H612.764L612.501 155.098C612.895 160.887 614.606 165.623 617.763 169.176C620.921 172.728 625.658 174.57 631.841 174.57C636.972 174.57 641.314 174.044 644.867 172.991C648.419 171.939 652.103 170.36 655.918 168.255L662.102 182.332C658.681 185.095 654.076 187.464 648.287 189.305C642.63 191.147 636.315 192.2 629.341 192.2ZM627.894 121.68C623.289 121.68 619.737 123.258 617.237 126.416C614.737 129.574 613.29 133.784 612.764 139.047L612.895 139.441H640.788V137.731C640.788 132.731 639.735 128.784 637.762 126.021C635.788 123.127 632.499 121.68 627.894 121.68Z" fill="white" fill-opacity="0.93"/>
<path opacity="0.87" d="M721.307 125.232L712.887 124.969C709.466 124.969 706.703 125.627 704.467 127.074C702.23 128.521 700.651 130.495 699.467 132.994V190.358H676.574V105.365H697.888L698.941 117.864C700.914 113.391 703.546 109.97 706.703 107.47C709.861 104.971 713.545 103.786 717.624 103.786C718.808 103.786 719.86 103.918 720.781 104.05C721.702 104.181 722.755 104.444 723.676 104.707L721.307 125.232Z" fill="white" fill-opacity="0.93"/>
<path opacity="0.87" d="M757.357 85.2354H734.464V68H757.357V85.2354ZM757.357 190.49H734.464V105.497H757.357V190.49Z" fill="white" fill-opacity="0.93"/>
<path opacity="0.87" d="M826.298 190.49C825.509 188.516 824.72 186.543 824.193 184.306C823.536 182.201 823.141 179.964 822.878 177.728C820.509 181.806 817.352 185.227 813.536 187.99C809.721 190.753 805.116 192.068 799.722 192.068C790.775 192.068 783.934 189.832 779.197 185.227C774.329 180.622 771.961 174.438 771.961 166.544C771.961 158.255 775.119 151.809 781.565 147.204C788.012 142.599 797.353 140.362 809.589 140.362H822.483V133.652C822.483 129.574 821.43 126.416 819.325 124.179C817.22 121.943 813.931 120.759 809.721 120.759C806.037 120.759 803.143 121.68 801.169 123.522C799.195 125.364 798.143 127.863 798.143 130.889H775.908L775.776 130.363C775.382 123.258 778.539 116.943 785.118 111.812C791.696 106.549 800.38 104.05 811.037 104.05C821.299 104.05 829.456 106.549 835.771 111.68C842.087 116.812 845.244 124.179 845.244 133.784V168.912C845.244 172.86 845.507 176.675 846.165 180.096C846.823 183.648 847.744 187.069 849.06 190.49H826.298V190.49ZM805.379 175.228C809.326 175.228 812.879 174.175 816.036 172.202C819.194 170.228 821.299 167.86 822.483 165.229V153.256H809.589C804.721 153.256 801.037 154.44 798.538 156.808C796.038 159.176 794.854 162.203 794.854 165.623C794.854 168.518 795.775 170.754 797.617 172.465C799.459 174.307 802.09 175.228 805.379 175.228Z" fill="white" fill-opacity="0.93"/>
<path opacity="0.87" d="M886.688 190.49H863.795V68H886.688V190.49Z" fill="white" fill-opacity="0.93"/>
<path opacity="0.87" d="M1006.81 160.624C1006.81 156.282 1005.23 152.73 1002.2 149.967C999.179 147.335 993.784 144.836 986.022 142.467C972.865 138.52 962.866 133.784 956.025 128.39C949.183 122.995 945.762 115.628 945.762 106.286C945.762 96.9449 949.578 89.314 957.34 83.2619C964.971 77.3413 974.839 74.3153 986.811 74.3153C999.442 74.3153 1009.7 77.4729 1017.34 83.9197C1025.1 90.3665 1028.78 98.6553 1028.52 109.049L1028.39 109.575H1006.15C1006.15 103.918 1004.44 99.4447 1001.02 96.4187C997.6 93.3926 992.732 91.8138 986.548 91.8138C980.891 91.8138 976.549 93.1295 973.391 95.8924C970.365 98.6553 968.787 102.076 968.787 106.286C968.787 110.102 970.497 113.391 973.786 115.759C977.075 118.259 982.864 120.89 991.153 123.653C1003.65 127.206 1013.26 131.81 1019.83 137.599C1026.41 143.388 1029.7 150.888 1029.7 160.229C1029.7 169.965 1025.89 177.728 1018.26 183.385C1010.63 189.042 1000.49 191.805 987.995 191.805C975.76 191.805 965.103 188.779 956.288 182.596C947.473 176.412 943.131 167.334 943.394 155.229L943.526 154.703H965.76C965.76 161.413 967.734 166.413 971.681 169.57C975.628 172.728 981.022 174.307 987.864 174.307C994.048 174.307 998.652 172.991 1001.94 170.491C1005.23 168.386 1006.81 164.965 1006.81 160.624Z" fill="white" fill-opacity="0.93"/>
<path opacity="0.87" d="M1067.33 116.285C1069.96 112.47 1073.25 109.444 1077.2 107.207C1081.01 105.102 1085.36 103.918 1090.09 103.918C1098.91 103.918 1105.88 106.813 1110.88 112.733C1115.88 118.654 1118.51 127.732 1118.51 139.968V190.358H1095.62V139.836C1095.62 133.258 1094.57 128.521 1092.46 125.758C1090.36 122.995 1087.2 121.68 1082.99 121.68C1079.44 121.68 1076.41 122.206 1073.78 123.39C1071.15 124.574 1069.04 126.153 1067.46 128.258V190.49H1044.31V68H1067.2V116.285H1067.33Z" fill="white" fill-opacity="0.93"/>
<path opacity="0.87" d="M1172.45 192.2C1159.82 192.2 1149.96 188.253 1142.72 180.49C1135.61 172.728 1132.06 162.729 1132.06 150.493V147.335C1132.06 134.573 1135.48 124.179 1142.46 116.154C1149.43 107.997 1158.9 104.05 1171.01 104.05C1182.45 104.05 1191.14 107.602 1197.32 114.575C1203.37 121.548 1206.53 131.021 1206.53 142.731V154.572H1155.88L1155.61 155.098C1156.01 160.887 1157.72 165.623 1160.88 169.176C1164.03 172.728 1168.77 174.57 1174.95 174.57C1180.08 174.57 1184.43 174.044 1187.98 172.991C1191.53 171.939 1195.21 170.36 1199.03 168.255L1205.21 182.332C1201.79 185.095 1197.19 187.464 1191.4 189.305C1185.61 191.147 1179.3 192.2 1172.45 192.2ZM1171.01 121.68C1166.4 121.68 1162.85 123.258 1160.35 126.416C1157.85 129.574 1156.4 133.784 1155.88 139.047L1156.01 139.441H1183.9V137.731C1183.9 132.731 1182.85 128.784 1180.87 126.021C1178.77 123.127 1175.48 121.68 1171.01 121.68Z" fill="white" fill-opacity="0.93"/>
<path opacity="0.87" d="M1243.89 190.49H1221V68H1243.89V190.49Z" fill="white" fill-opacity="0.93"/>
<path opacity="0.87" d="M1286.79 190.49H1263.89V68H1286.79V190.49Z" fill="white" fill-opacity="0.93"/>
</svg>
