<?xml version="1.0" encoding="UTF-8"?><!DOCTYPE svg PUBLIC "-//W3C//DTD SVG 1.1//EN" "http://www.w3.org/Graphics/SVG/1.1/DTD/svg11.dtd"><svg xmlns="http://www.w3.org/2000/svg" xmlns:xlink="http://www.w3.org/1999/xlink" aria-hidden="true" focusable="false" width="1em" height="1em" style="-ms-transform: rotate(360deg); -webkit-transform: rotate(360deg); transform: rotate(360deg);" preserveAspectRatio="xMidYMid meet" viewBox="0 0 26 26"><path d="M23.594 0c-.256 0-.524.086-.719.281l-.406.438-.188-.156a.497.497 0 00-.718 0 .497.497 0 000 .718l.156.188-.25.25-.188-.157a.497.497 0 00-.718 0 .497.497 0 000 .72l.156.187-.188.187a.96.96 0 00-.25.938l-4.375 4.375c-.903-.79-2.269-1.719-3.75-1.719-.657 0-1.332.2-2 .656-1.482 1.013-1.198 2.548-2.125 3.438-1.04 1-3.883.194-6.5 2.812-2.617 2.616-1.457 6.235 1.875 9.438 1.998 2.078 4.148 3.312 6.125 3.312 1.191 0 2.328-.452 3.313-1.437 2.617-2.617 1.811-5.458 2.812-6.5.89-.925 2.455-.611 3.469-2.094 1.487-2.173.052-4.471-1.094-5.781l4.375-4.375c.33.084.679.009.938-.25l.187-.188.188.157a.464.464 0 00.343.156.535.535 0 00.375-.157.497.497 0 000-.718l-.156-.188.25-.25.188.157a.464.464 0 00.343.156.535.535 0 00.375-.157.497.497 0 000-.718l-.156-.188.438-.406a.99.99 0 000-1.406L24.28.28A.939.939 0 0023.594 0zm-.063 1.188c.077 0 .16.004.219.062a.317.317 0 010 .438l-2 2a.316.316 0 01-.219.093.32.32 0 01-.218-.094.317.317 0 010-.437l2-2c.058-.058.142-.063.218-.063zm1 1c.077 0 .16.003.219.062a.316.316 0 010 .438l-2 2a.32.32 0 01-.219.093.32.32 0 01-.218-.093.317.317 0 010-.438l2-2c.058-.058.142-.063.218-.063zM12.156 7.655c.96 0 1.974.652 2.75 1.313l-3.344 3.344c-.074-.008-.142-.032-.218-.032a2.383 2.383 0 00-2.375 2.375 2.383 2.383 0 002.375 2.375 2.383 2.383 0 002.375-2.375c0-.076-.024-.144-.031-.219l3.374-3.374c.868 1.006 1.848 2.624.907 4-.306.446-.691.61-1.375.843-.602.205-1.355.455-1.969 1.094-.674.701-.824 1.623-1 2.594-.222 1.219-.471 2.597-1.781 3.906-.688.688-1.446 1.031-2.313 1.031-1.517 0-3.337-1.046-5.125-2.906a.46.46 0 00-.031-.031C2.53 19.822 1.484 18.01 1.469 16.5c-.01-.881.334-1.645 1.031-2.344 1.31-1.31 2.688-1.56 3.906-1.781.971-.176 1.894-.357 2.594-1.031.634-.608.885-1.343 1.094-1.938.24-.682.39-1.034.844-1.344.388-.265.79-.406 1.218-.406zm-6.594 8.625a.316.316 0 00-.218.094L4.719 17a.313.313 0 000 .438l3.843 3.843c.118.117.32.117.438 0l.625-.625a.315.315 0 000-.437l-3.844-3.844a.316.316 0 00-.218-.094z" fill="white"/></svg>