<?xml version="1.0" encoding="utf-8"?>
<!-- Generator: Adobe Illustrator 19.0.0, SVG Export Plug-In . SVG Version: 6.00 Build 0)  -->
<svg version="1.1" id="Calque_1" xmlns="http://www.w3.org/2000/svg" xmlns:xlink="http://www.w3.org/1999/xlink" x="0px" y="0px"
	 viewBox="0 0 1124.6 260" style="enable-background:new 0 0 1124.6 260;" xml:space="preserve">
<style type="text/css">
	.st0{opacity:0.1;fill:#FFFFFF;}
	.st1{opacity:7.000000e-002;fill:#FFFFFF;}
	.st2{opacity:0.5;fill:#FFFFFF;}
	.st3{opacity:0.8;fill:#FFFFFF;}
	.st4{opacity:0.87;}
	.st5{fill:#FFFFFF;}
</style>
<path id="XMLID_790_" class="st0" d="M1108.6,260H16.9c-8.8,0-16-7.2-16-16V16c0-8.8,7.2-16,16-16h1091.7c8.8,0,16,7.2,16,16v228
	C1124.6,252.8,1117.4,260,1108.6,260z"/>
<path id="XMLID_789_" class="st1" d="M244,260H16c-8.8,0-16-7.2-16-16V16C0,7.2,7.2,0,16,0h228c8.8,0,16,7.2,16,16v228
	C260,252.8,252.8,260,244,260z"/>
<g id="XMLID_783_">
	<path id="XMLID_788_" class="st2" d="M138,244H96c-8.8,0-16-7.2-16-16V96c0-8.8,7.2-16,16-16h42c8.8,0,16,7.2,16,16v132
		C154,236.8,146.8,244,138,244z"/>
	<path id="XMLID_787_" class="st2" d="M193.5,148.4l-17.9-17.9c-7.5-7.5-7.5-19.6,0-27.1l17.9-17.9c7.5-7.5,19.6-7.5,27.1,0
		l17.9,17.9c7.5,7.5,7.5,19.6,0,27.1l-17.9,17.9C213.1,155.9,200.9,155.9,193.5,148.4z"/>
	<path id="XMLID_786_" class="st3" d="M207,244L207,244c-20.4,0-37-16.6-37-37v0c0-20.4,16.6-37,37-37h0c20.4,0,37,16.6,37,37v0
		C244,227.4,227.4,244,207,244z"/>
	<path id="XMLID_785_" class="st3" d="M16,228V32c0-8.8,7.2-16,16-16h16c8.8,0,16,7.2,16,16v196c0,8.8-7.2,16-16,16H32
		C23.2,244,16,236.8,16,228z"/>
	<path id="XMLID_784_" class="st2" d="M228,15.8H48c8.8,0,15.5,7.3,15.5,16.2v31.8H228c8.8,0,15.5-7,15.5-15.8V32
		C243.5,23.2,236.8,15.8,228,15.8z"/>
</g>
<g id="XMLID_751_" class="st4">
	<path id="XMLID_781_" class="st5" d="M365.4,153.1h0.4l22.3-64h22.7v86.9h-17.4v-59.3l-0.4-0.1l-21.5,59.4h-11.8l-21.5-59.5
		l-0.4,0.1v59.4h-17.4V89h22.9L365.4,153.1z"/>
	<path id="XMLID_778_" class="st5" d="M463.6,175.9c-0.6-1.5-1.2-3-1.6-4.7c-0.5-1.6-0.8-3.3-1-5c-1.8,3.1-4.2,5.7-7.1,7.8
		s-6.4,3.1-10.5,3.1c-6.8,0-12-1.7-15.6-5.2c-3.7-3.5-5.5-8.2-5.5-14.2c0-6.3,2.4-11.2,7.3-14.7c4.9-3.5,12-5.2,21.3-5.2h9.8v-5.1
		c0-3.1-0.8-5.5-2.4-7.2c-1.6-1.7-4.1-2.6-7.3-2.6c-2.8,0-5,0.7-6.5,2.1c-1.5,1.4-2.3,3.3-2.3,5.6h-16.8l-0.1-0.4
		c-0.3-5.4,2.1-10.2,7.1-14.1c5-4,11.6-5.9,19.7-5.9c7.8,0,14,1.9,18.8,5.8c4.8,3.9,7.2,9.5,7.2,16.8v26.7c0,3,0.2,5.9,0.7,8.5
		c0.5,2.7,1.2,5.3,2.2,7.9H463.6z M447.6,164.3c3,0,5.7-0.8,8.1-2.3c2.4-1.5,4-3.3,4.9-5.3v-9.1h-9.8c-3.7,0-6.5,0.9-8.4,2.7
		c-1.9,1.8-2.8,4.1-2.8,6.7c0,2.2,0.7,3.9,2.1,5.2C443.2,163.6,445.1,164.3,447.6,164.3z"/>
	<path id="XMLID_776_" class="st5" d="M512,95.5v15.8h10.9v12.2H512v32.9c0,2.5,0.5,4.3,1.6,5.4c1.1,1.1,2.4,1.6,4.1,1.6
		c0.9,0,1.7,0,2.4-0.1c0.7-0.1,1.5-0.3,2.3-0.5l1.4,12.6c-1.8,0.6-3.5,1-5.1,1.3s-3.5,0.4-5.4,0.4c-6,0-10.6-1.6-13.9-5
		c-3.2-3.3-4.9-8.5-4.9-15.7v-32.9h-9.4v-12.2h9.4V95.5H512z"/>
	<path id="XMLID_773_" class="st5" d="M561.6,177.2c-9.6,0-17.1-3-22.6-8.9c-5.4-5.9-8.1-13.5-8.1-22.8v-2.4
		c0-9.7,2.6-17.6,7.9-23.7c5.3-6.2,12.5-9.2,21.7-9.2c8.7,0,15.3,2.7,20,8c4.6,5.3,7,12.5,7,21.4v9h-38.5l-0.2,0.4
		c0.3,4.4,1.6,8,4,10.7c2.4,2.7,6,4.1,10.7,4.1c3.9,0,7.2-0.4,9.9-1.2c2.7-0.8,5.5-2,8.4-3.6l4.7,10.7c-2.6,2.1-6.1,3.9-10.5,5.3
		C571.7,176.4,566.9,177.2,561.6,177.2z M560.5,123.6c-3.5,0-6.2,1.2-8.1,3.6c-1.9,2.4-3,5.6-3.4,9.6l0.1,0.3h21.2v-1.3
		c0-3.8-0.8-6.8-2.3-8.9C566.5,124.7,564,123.6,560.5,123.6z"/>
	<path id="XMLID_771_" class="st5" d="M631.5,126.3l-6.4-0.2c-2.6,0-4.7,0.5-6.4,1.6s-2.9,2.6-3.8,4.5v43.6h-17.4v-64.6h16.2
		l0.8,9.5c1.5-3.4,3.5-6,5.9-7.9c2.4-1.9,5.2-2.8,8.3-2.8c0.9,0,1.7,0.1,2.4,0.2c0.7,0.1,1.5,0.3,2.2,0.5L631.5,126.3z"/>
	<path id="XMLID_768_" class="st5" d="M658.9,95.9h-17.4V82.8h17.4V95.9z M658.9,175.9h-17.4v-64.6h17.4V175.9z"/>
	<path id="XMLID_765_" class="st5" d="M711.3,175.9c-0.6-1.5-1.2-3-1.6-4.7c-0.5-1.6-0.8-3.3-1-5c-1.8,3.1-4.2,5.7-7.1,7.8
		c-2.9,2.1-6.4,3.1-10.5,3.1c-6.8,0-12-1.7-15.6-5.2c-3.7-3.5-5.5-8.2-5.5-14.2c0-6.3,2.4-11.2,7.3-14.7c4.9-3.5,12-5.2,21.3-5.2
		h9.8v-5.1c0-3.1-0.8-5.5-2.4-7.2c-1.6-1.7-4.1-2.6-7.3-2.6c-2.8,0-5,0.7-6.5,2.1c-1.5,1.4-2.3,3.3-2.3,5.6H673l-0.1-0.4
		c-0.3-5.4,2.1-10.2,7.1-14.1c5-4,11.6-5.9,19.7-5.9c7.8,0,14,1.9,18.8,5.8c4.8,3.9,7.2,9.5,7.2,16.8v26.7c0,3,0.2,5.9,0.7,8.5
		c0.5,2.7,1.2,5.3,2.2,7.9H711.3z M695.4,164.3c3,0,5.7-0.8,8.1-2.3c2.4-1.5,4-3.3,4.9-5.3v-9.1h-9.8c-3.7,0-6.5,0.9-8.4,2.7
		c-1.9,1.8-2.8,4.1-2.8,6.7c0,2.2,0.7,3.9,2.1,5.2C690.9,163.6,692.9,164.3,695.4,164.3z"/>
	<path id="XMLID_763_" class="st5" d="M757.2,175.9h-17.4V82.8h17.4V175.9z"/>
	<path id="XMLID_761_" class="st5" d="M848.5,153.2c0-3.3-1.2-6-3.5-8.1c-2.3-2-6.4-3.9-12.3-5.7c-10-3-17.6-6.6-22.8-10.7
		c-5.2-4.1-7.8-9.7-7.8-16.8c0-7.1,2.9-12.9,8.8-17.5c5.8-4.5,13.3-6.8,22.4-6.8c9.6,0,17.4,2.4,23.2,7.3c5.9,4.9,8.7,11.2,8.5,19.1
		l-0.1,0.4H848c0-4.3-1.3-7.7-3.9-10c-2.6-2.3-6.3-3.5-11-3.5c-4.3,0-7.6,1-10,3.1c-2.3,2.1-3.5,4.7-3.5,7.9c0,2.9,1.3,5.4,3.8,7.2
		c2.5,1.9,6.9,3.9,13.2,6c9.5,2.7,16.8,6.2,21.8,10.6c5,4.4,7.5,10.1,7.5,17.2c0,7.4-2.9,13.3-8.7,17.6c-5.8,4.3-13.5,6.4-23,6.4
		c-9.3,0-17.4-2.3-24.1-7c-6.7-4.7-10-11.6-9.8-20.8l0.1-0.4h16.9c0,5.1,1.5,8.9,4.5,11.3c3,2.4,7.1,3.6,12.3,3.6
		c4.7,0,8.2-1,10.7-2.9C847.3,159.1,848.5,156.5,848.5,153.2z"/>
	<path id="XMLID_759_" class="st5" d="M894.5,119.5c2-2.9,4.5-5.2,7.5-6.9c2.9-1.6,6.2-2.5,9.8-2.5c6.7,0,12,2.2,15.8,6.7
		c3.8,4.5,5.8,11.4,5.8,20.7v38.3h-17.4v-38.4c0-5-0.8-8.6-2.4-10.7s-4-3.1-7.2-3.1c-2.7,0-5,0.4-7,1.3c-2,0.9-3.6,2.1-4.8,3.7v47.3
		H877V82.8h17.4V119.5z"/>
	<path id="XMLID_756_" class="st5" d="M974.4,177.2c-9.6,0-17.1-3-22.6-8.9c-5.4-5.9-8.1-13.5-8.1-22.8v-2.4
		c0-9.7,2.6-17.6,7.9-23.7c5.3-6.2,12.5-9.2,21.7-9.2c8.7,0,15.3,2.7,20,8c4.6,5.3,7,12.5,7,21.4v9h-38.5l-0.2,0.4
		c0.3,4.4,1.6,8,4,10.7s6,4.1,10.7,4.1c3.9,0,7.2-0.4,9.9-1.2c2.7-0.8,5.5-2,8.4-3.6l4.7,10.7c-2.6,2.1-6.1,3.9-10.5,5.3
		S979.6,177.2,974.4,177.2z M973.3,123.6c-3.5,0-6.2,1.2-8.1,3.6c-1.9,2.4-3,5.6-3.4,9.6l0.1,0.3h21.2v-1.3c0-3.8-0.8-6.8-2.3-8.9
		C979.2,124.7,976.7,123.6,973.3,123.6z"/>
	<path id="XMLID_754_" class="st5" d="M1028.7,175.9h-17.4V82.8h17.4V175.9z"/>
	<path id="XMLID_752_" class="st5" d="M1061.3,175.9h-17.4V82.8h17.4V175.9z"/>
</g>
</svg>
