<?xml version="1.0" encoding="iso-8859-1"?>
<!-- Generator: Adobe Illustrator 19.0.0, SVG Export Plug-In . SVG Version: 6.00 Build 0)  -->
<svg xmlns="http://www.w3.org/2000/svg" xmlns:xlink="http://www.w3.org/1999/xlink" version="1.1" width="24" height="24" viewBox="0 0 24 24" fill="#FFFFFF">
<path d="m 22.993258,9.5875703 h -2.245333 c -0.360889,0 -0.658222,-0.198666 -0.796444,-0.532 -0.138223,-0.333333 -0.068,-0.684444 0.186666,-0.939555 l 1.587556,-1.587111 c 0.233333,-0.233334 0.361778,-0.544 0.361778,-0.873778 0,-0.330222 -0.128445,-0.640445 -0.361778,-0.874222 l -2.023556,-2.023556 c -0.466666,-0.466667 -1.280444,-0.467555 -1.748,0 l -1.587111,1.587111 c -0.211111,0.211111 -0.443111,0.255111 -0.600889,0.255111 -0.222222,0 -0.443111,-0.08711 -0.606222,-0.239555 -0.120444,-0.112889 -0.264444,-0.312889 -0.264444,-0.624889 v -2.245333 c 0,-0.68133401 -0.554223,-1.23555601 -1.235556,-1.23555601 h -2.862222 c -0.681334,0 -1.2355561,0.554222 -1.2355561,1.23555601 v 2.245333 c 0,0.541333 -0.4431111,0.864444 -0.8715555,0.864444 -0.1573334,0 -0.3893334,-0.04444 -0.6004445,-0.255111 L 6.5030358,2.7573483 c -0.4675555,-0.467555 -1.2813333,-0.466667 -1.748,0 l -2.0235555,2.023556 c -0.2333334,0.233333 -0.3617778,0.544 -0.3617778,0.874222 0,0.329778 0.1284444,0.64 0.3617778,0.873778 l 1.5875555,1.587111 c 0.2546667,0.255111 0.3244445,0.606222 0.1866667,0.939555 -0.1377778,0.333334 -0.4351111,0.532 -0.796,0.532 H 1.4643692 c -0.68133342,0 -1.23555564,0.5542227 -1.23555564,1.2355557 v 2.861333 c 0,0.681778 0.55422222,1.236445 1.23555564,1.236445 h 2.2453333 c 0.3608889,0 0.6582222,0.198666 0.7964444,0.532 0.1382223,0.333333 0.068,0.684444 -0.1866666,0.939555 L 2.7319247,17.97957 c -0.2333333,0.233334 -0.3617778,0.544 -0.3617778,0.873778 0,0.330222 0.1284445,0.640445 0.3617778,0.874222 l 2.0235556,2.023556 c 0.4671111,0.467111 1.2804444,0.468 1.748,0 l 1.5871111,-1.587111 c 0.2111111,-0.211111 0.4431111,-0.255111 0.6008889,-0.255111 0.428,0 0.8711111,0.323555 0.8711111,0.864444 v 2.244889 c -4.445e-4,0.681333 0.5537776,1.236 1.2351116,1.236 h 2.861778 c 0.681333,0 1.235555,-0.554667 1.235555,-1.236 v -2.244889 c 0,-0.541333 0.443111,-0.864444 0.871111,-0.864444 0.157334,0 0.389778,0.04444 0.600889,0.255111 l 1.587111,1.587111 c 0.467556,0.467555 1.281334,0.466667 1.748,0 l 2.023556,-2.023556 c 0.233333,-0.233333 0.361778,-0.544 0.361778,-0.874222 0,-0.329778 -0.128445,-0.64 -0.361778,-0.873778 l -1.587556,-1.587111 c -0.254666,-0.255111 -0.324444,-0.606222 -0.186666,-0.939555 0.137777,-0.333334 0.435555,-0.532 0.796444,-0.532 h 2.245333 c 0.681334,0 1.235556,-0.554667 1.235556,-1.236 v -2.861778 c 0,-0.681333 -0.554222,-1.2355557 -1.235556,-1.2355557 z m -7.653333,2.6666667 c 0,1.715111 -1.396,3.111111 -3.111111,3.111111 -1.715111,0 -3.1111115,-1.396 -3.1111115,-3.111111 0,-1.715111 1.3960005,-3.1111107 3.1111115,-3.1111107 1.715111,0 3.111111,1.3959997 3.111111,3.1111107 z"/>
<g>
</g>
<g>
</g>
<g>
</g>
<g>
</g>
<g>
</g>
<g>
</g>
<g>
</g>
<g>
</g>
<g>
</g>
<g>
</g>
<g>
</g>
<g>
</g>
<g>
</g>
<g>
</g>
<g>
</g>
</svg>
